<svg width="240" height="82" viewBox="0 0 240 82" fill="none" xmlns="http://www.w3.org/2000/svg">
<path d="M32.9992 62.32H0V3.772H32.9992V11.316H8.86546V28.044H31.5216V35.506H8.86546V54.694H32.9992V62.32ZM60.469 17.302C64.3545 17.302 67.6927 18.122 70.4837 19.762C73.2747 21.3473 75.4089 23.6433 76.8865 26.65C78.4188 29.6567 79.185 33.21 79.185 37.31V42.066H49.4693C49.5788 46.6033 50.7553 50.0747 52.999 52.48C55.2975 54.8853 58.4989 56.088 62.6033 56.088C65.449 56.088 67.9664 55.842 70.1553 55.35C72.3991 54.8033 74.6976 54.0107 77.0507 52.972V60.188C74.8618 61.172 72.618 61.91 70.3195 62.402C68.0758 62.894 65.3943 63.14 62.2749 63.14C58.0064 63.14 54.2303 62.2927 50.9468 60.598C47.6633 58.9033 45.0913 56.3887 43.2306 53.054C41.4247 49.6647 40.5217 45.51 40.5217 40.59C40.5217 35.6153 41.3426 31.406 42.9844 27.962C44.6809 24.518 47.0066 21.894 49.9618 20.09C52.9717 18.2313 56.4741 17.302 60.469 17.302ZM60.469 24.026C57.3497 24.026 54.8324 25.0373 52.9169 27.06C51.0564 29.0827 49.9618 31.9527 49.6334 35.67H70.4837C70.4837 33.374 70.128 31.3513 69.4165 29.602C68.7052 27.8527 67.6106 26.486 66.133 25.502C64.6555 24.518 62.7675 24.026 60.469 24.026ZM105.557 17.302C111.139 17.302 115.298 18.532 118.034 20.992C120.771 23.3973 122.138 27.1967 122.138 32.39V62.32H115.982L114.258 56.17H113.93C112.671 57.7553 111.358 59.0673 109.989 60.106C108.676 61.1447 107.144 61.91 105.392 62.402C103.697 62.894 101.616 63.14 99.1541 63.14C96.5273 63.14 94.1467 62.6753 92.0125 61.746C89.9329 60.762 88.2912 59.286 87.0872 57.318C85.8832 55.2953 85.2813 52.7807 85.2813 49.774C85.2813 45.2913 86.9778 41.8747 90.3707 39.524C93.8184 37.1733 99.0447 35.8887 106.049 35.67L113.601 35.424V32.964C113.601 29.684 112.862 27.388 111.385 26.076C109.907 24.764 107.828 24.108 105.146 24.108C102.848 24.108 100.659 24.436 98.5795 25.092C96.4999 25.748 94.5298 26.5407 92.6692 27.47L89.8782 21.156C91.9577 20.0627 94.3382 19.1607 97.0198 18.45C99.7564 17.6847 102.601 17.302 105.557 17.302ZM107.609 41.246C102.574 41.4647 99.072 42.312 97.1019 43.788C95.1865 45.2093 94.2288 47.232 94.2288 49.856C94.2288 52.152 94.9128 53.8193 96.281 54.858C97.7038 55.8967 99.4821 56.416 101.616 56.416C105.064 56.416 107.91 55.4593 110.154 53.546C112.398 51.6327 113.519 48.7627 113.519 44.936V41.082L107.609 41.246ZM149.163 17.302C152.009 17.302 154.581 17.8487 156.879 18.942C159.178 20.0353 161.121 21.7027 162.708 23.944H163.118L164.103 18.122H171.163V62.894C171.163 67.0487 170.424 70.5473 168.946 73.39C167.469 76.2327 165.198 78.3647 162.133 79.786C159.124 81.262 155.32 82 150.723 82C147.549 82 144.621 81.7813 141.939 81.344C139.259 80.9067 136.796 80.2233 134.552 79.294V71.668C136.139 72.4333 137.808 73.062 139.559 73.554C141.311 74.1007 143.171 74.4833 145.141 74.702C147.111 74.9753 149.136 75.112 151.215 75.112C154.827 75.112 157.618 74.0733 159.588 71.996C161.558 69.9733 162.543 67.1033 162.543 63.386V61.91C162.543 61.1993 162.571 60.27 162.625 59.122C162.681 57.9193 162.736 57.0447 162.79 56.498H162.461C160.93 58.794 159.042 60.4887 156.797 61.582C154.609 62.6207 152.064 63.14 149.163 63.14C143.581 63.14 139.203 61.1447 136.029 57.154C132.91 53.1087 131.35 47.5053 131.35 40.344C131.35 35.5333 132.062 31.4333 133.484 28.044C134.908 24.6 136.932 21.9487 139.559 20.09C142.241 18.2313 145.442 17.302 149.163 17.302ZM150.969 24.518C148.671 24.518 146.729 25.1467 145.141 26.404C143.554 27.6067 142.35 29.3833 141.529 31.734C140.708 34.0847 140.298 36.982 140.298 40.426C140.298 45.5647 141.201 49.4733 143.007 52.152C144.868 54.8307 147.576 56.17 151.133 56.17C153.213 56.17 154.964 55.8967 156.387 55.35C157.864 54.8033 159.069 53.956 159.999 52.808C160.984 51.66 161.695 50.2113 162.133 48.462C162.625 46.658 162.872 44.4987 162.872 41.984V40.344C162.872 36.572 162.434 33.538 161.558 31.242C160.737 28.8913 159.452 27.1967 157.7 26.158C155.949 25.0647 153.706 24.518 150.969 24.518ZM191.859 62.32H183.157V0H191.859V62.32ZM221.284 17.302C225.169 17.302 228.508 18.122 231.299 19.762C234.09 21.3473 236.224 23.6433 237.702 26.65C239.233 29.6567 240 33.21 240 37.31V42.066H210.284C210.393 46.6033 211.57 50.0747 213.814 52.48C216.113 54.8853 219.314 56.088 223.418 56.088C226.263 56.088 228.781 55.842 230.97 55.35C233.214 54.8033 235.512 54.0107 237.866 52.972V60.188C235.676 61.172 233.433 61.91 231.135 62.402C228.89 62.894 226.209 63.14 223.09 63.14C218.821 63.14 215.045 62.2927 211.762 60.598C208.478 58.9033 205.906 56.3887 204.046 53.054C202.24 49.6647 201.337 45.51 201.337 40.59C201.337 35.6153 202.158 31.406 203.799 27.962C205.495 24.518 207.822 21.894 210.777 20.09C213.786 18.2313 217.289 17.302 221.284 17.302ZM221.284 24.026C218.165 24.026 215.647 25.0373 213.732 27.06C211.871 29.0827 210.777 31.9527 210.448 35.67H231.299C231.299 33.374 230.942 31.3513 230.232 29.602C229.52 27.8527 228.426 26.486 226.948 25.502C225.471 24.518 223.582 24.026 221.284 24.026Z" fill="#3D3D3D"/>
</svg>
