<svg width="22" height="22" viewBox="0 0 22 22" fill="none" xmlns="http://www.w3.org/2000/svg">
<path fill-rule="evenodd" clip-rule="evenodd" d="M15 10C15 12.2091 13.2091 14 11 14C8.79086 14 7 12.2091 7 10C7 7.79086 8.79086 6 11 6C13.2091 6 15 7.79086 15 10ZM14.7055 15.4126C14.0431 14.7502 13.0186 14.6714 12.1049 14.8775C11.7494 14.9577 11.3797 15 11 15C8.23858 15 6 12.7614 6 10C6 7.23858 8.23858 5 11 5C13.7614 5 16 7.23858 16 10C16 10.8165 15.8043 11.5873 15.4572 12.2681C15.016 13.1334 14.9584 14.2512 15.6452 14.9381L16.5 15.7929C16.6953 15.9882 16.6953 16.3047 16.5 16.5V16.5C16.3047 16.6953 15.9882 16.6953 15.7929 16.5L14.7055 15.4126Z" fill="#9E9E9E"/>
</svg>
